<?xml version="1.0" encoding="UTF-8"?>
<svg id="Layer_2" data-name="Layer 2" xmlns="http://www.w3.org/2000/svg" viewBox="0 0 1154.64 217.91">
  <defs>
    <style>
      .cls-1 {
        fill: #fff;
      }

      .cls-2 {
        fill: #ff9d00;
      }
    </style>
  </defs>
  <g id="Layer_1-2" data-name="Layer 1">
    <path class="cls-2" d="M268.59,99.9L162.71,9c-13.85-11.89-36.19-11.91-49.64-.55l-33.33,28.18c-10.15-8.12-22.87-9.84-34.22-4.49-7.97,3.75-14.2,11.2-14.25,20.43l-.12,23.98-24.18,22.92C1.91,104.28-.84,110.21.23,117c2.11,13.3,15.69,18.38,30.68,18.11l.43,34.35c.32,25.45,15.72,46.11,40.69,47.85,11.35.79,22.69.72,34.66-.01,19.06-1.15,31.49-18.21,34.09-16.2l2.7,2.11c8.7,6.75,18.22,13.31,29.67,14.01,12.11.75,24.37,1.18,36.24-.25,14.59-1.77,26.28-10.91,31.85-23.98,3.62-8.5,4.9-17.55,4.91-26.86l.03-31.36c14.87.87,28.09-6.47,28.78-19.45.3-5.56-1.75-11.46-6.37-15.42ZM251.23,116.36l-26.25-.04.05,50.78c.02,15.69-5.61,31.43-20.52,32.24-9.67.53-19.31.67-28.98-.22-8.1-.76-14.43-6.89-20.24-11.49l24.51-19.19c8.13-7.28,15.7-13.81,22.18-24.01l-27.97-.05c-10.74,11.13-21.35,20.47-33.85,30.46-12.17-9.67-23.22-19.38-34.14-30.49l-27.78-.03c10.55,17.24,30.15,29.85,46.5,43.17-5.87,4.14-11.71,10.55-19.35,11.5-10.24,1.28-20.53.6-30.78.47-14.99-2.17-22.37-15.73-22.38-30.28l-.04-52.82-27.7.02c-1.3,0-3.32-2.04-3.34-3.01l23.6-22.15c2.36-2.21,5.64-5.82,7.36-8.41l.19-29.93c.02-2.54,3.83-5.16,6.07-5.5,2.25-.34,7.57,1.6,7.64,4.11l.54,22.35,61.26-52.41c5.53-4.74,14.32-3.15,20.09.4l104.59,90.09,1.45,2.69c.3.56-1.87,1.75-2.71,1.75Z"/>
    <path class="cls-1" d="M206.94,133.79l-23.46-.13c6.93-9.44,4.81-20.02-4.18-25.41-8.65-5.17-20.17-5.22-28.1,2.24l-11.27,10.58c-4.07-4.08-7.65-8.13-11.85-11.31-10.05-7.61-24.04-6.37-32.04,2.53-4.66,7.01-4.81,14.25.99,21.5h-23.63c-5.13-15.03,1.38-31.34,15.01-39.85,15.85-9.9,35.65-9.49,51.66,1.08,17.74-11.93,41.08-11.17,57.16,3.28,10.19,9.16,13.84,22.25,9.71,35.49Z"/>
    <polygon class="cls-1" points="406.26 56.21 406.26 109.39 338.91 109.39 338.91 56.21 326.25 56.21 326.25 174.38 338.91 174.38 338.91 120.53 406.26 120.53 406.26 174.38 418.92 174.38 418.92 56.21 406.26 56.21"/>
    <path class="cls-1" d="M481.89,177.08c-9.79,0-18.29-2.11-25.49-6.33-7.2-4.22-12.8-10.1-16.8-17.64-4-7.54-5.99-16.15-5.99-25.83s2-18.46,5.99-26c3.99-7.54,9.59-13.45,16.8-17.72,7.2-4.28,15.7-6.41,25.49-6.41s18.29,2.14,25.49,6.41c7.2,4.28,12.8,10.19,16.8,17.72,3.99,7.54,5.99,16.21,5.99,26s-2,18.29-5.99,25.83c-4,7.54-9.59,13.42-16.8,17.64-7.2,4.22-15.7,6.33-25.49,6.33ZM481.89,165.6c6.86,0,12.97-1.52,18.32-4.56,5.34-3.04,9.54-7.43,12.58-13.17,3.04-5.74,4.56-12.6,4.56-20.59s-1.52-15.05-4.56-20.85c-3.04-5.79-7.23-10.21-12.58-13.25-5.35-3.04-11.45-4.56-18.32-4.56s-12.97,1.52-18.32,4.56c-5.35,3.04-9.54,7.46-12.58,13.25-3.04,5.8-4.56,12.74-4.56,20.85s1.52,14.86,4.56,20.59c3.04,5.74,7.23,10.13,12.58,13.17,5.34,3.04,11.45,4.56,18.32,4.56Z"/>
    <path class="cls-1" d="M668.67,93.1c-2.42-5.68-5.85-9.76-10.3-12.24-4.45-2.47-9.71-3.71-15.78-3.71-5.74,0-10.58,1.07-14.52,3.21-3.94,2.14-7.12,4.87-9.54,8.19-2.42,3.32-4.17,6.78-5.23,10.38-.13.44-.23.87-.35,1.3-.56-2.65-1.29-5.03-2.18-7.13-2.42-5.68-5.85-9.76-10.3-12.24-4.45-2.47-9.71-3.71-15.78-3.71-5.74,0-10.58,1.07-14.52,3.21-3.94,2.14-7.12,4.87-9.54,8.19-1.72,2.37-3.1,4.8-4.14,7.31v-16h-12.32v94.53h12.32v-47.94c0-7.54,1.1-14.18,3.29-19.92,2.19-5.74,5.2-10.27,9.03-13.59,3.83-3.32,8.27-4.98,13.34-4.98,5.4,0,9.54,1.18,12.41,3.54,2.87,2.36,4.84,5.8,5.91,10.3,1.07,4.5,1.6,10.02,1.6,16.54v56.04h12.32v-47.94c0-7.54,1.1-14.18,3.29-19.92,2.19-5.74,5.2-10.27,9.03-13.59,3.82-3.32,8.27-4.98,13.34-4.98,5.4,0,9.54,1.18,12.41,3.54,2.87,2.36,4.84,5.8,5.91,10.3,1.07,4.5,1.6,10.02,1.6,16.54v56.04h12.32v-58.24c0-9.68-1.21-17.36-3.63-23.04Z"/>
    <path class="cls-1" d="M775.02,108.46c-1.97-6.69-4.95-12.38-8.95-17.05-4-4.67-8.75-8.21-14.26-10.63-5.51-2.42-11.48-3.63-17.89-3.63-9.79,0-18.29,2.14-25.49,6.41-7.2,4.28-12.8,10.19-16.8,17.72-4,7.54-5.99,16.21-5.99,26s2,18.29,5.99,25.83c3.99,7.54,9.59,13.42,16.8,17.64,7.2,4.22,15.7,6.33,25.49,6.33,7.65,0,14.4-1.38,20.26-4.14,5.85-2.76,10.69-6.55,14.52-11.39,3.83-4.84,6.53-10.52,8.1-17.05h-13c-1.8,5.85-5.06,10.83-9.79,14.94-4.73,4.11-11.42,6.16-20.09,6.16-7.43,0-13.79-1.63-19.08-4.9-5.29-3.26-9.34-7.79-12.15-13.59-2.29-4.72-3.63-9.98-4.06-15.78h78.5c.56-8.55-.14-16.18-2.11-22.87ZM714.84,93.6c5.29-3.32,11.65-4.98,19.08-4.98,6.64,0,12.32,1.6,17.05,4.81,4.73,3.21,8.38,7.63,10.97,13.25,1.86,4.04,3.04,8.54,3.56,13.5h-66.57c.62-4.7,1.86-9.01,3.76-12.91,2.81-5.79,6.86-10.35,12.15-13.67Z"/>
    <path class="cls-2" d="M899.68,126.27c-.79,10.13-3.35,19.02-7.68,26.67-4.33,7.65-10.36,13.59-18.06,17.81-7.71,4.22-17.13,6.33-28.28,6.33-12.49,0-23.1-2.79-31.82-8.36-8.72-5.57-15.33-13.02-19.83-22.37-4.5-9.34-6.75-19.75-6.75-31.23,0-8.44,1.27-16.4,3.8-23.89,2.53-7.48,6.27-14.04,11.23-19.67,4.95-5.63,11.06-10.04,18.32-13.25,7.26-3.21,15.61-4.81,25.07-4.81,15.87,0,28.28,4.19,37.22,12.58,8.95,8.39,14.32,19.67,16.12,33.85h-24.48c-.56-3.82-1.52-7.29-2.87-10.38-1.35-3.09-3.18-5.77-5.49-8.02-2.31-2.25-5.15-3.99-8.52-5.23-3.38-1.24-7.37-1.86-11.99-1.86-7.99,0-14.55,1.94-19.67,5.82-5.12,3.88-8.86,8.92-11.23,15.11-2.36,6.19-3.54,12.77-3.54,19.75s1.18,13.59,3.54,19.83c2.36,6.25,6.1,11.31,11.23,15.19,5.12,3.88,11.67,5.82,19.67,5.82,5.06,0,9.4-.73,13-2.19,3.6-1.46,6.61-3.52,9.03-6.16,2.42-2.64,4.25-5.77,5.49-9.37,1.24-3.6,2.03-7.6,2.36-11.99h24.14Z"/>
    <path class="cls-2" d="M981.05,88.79c-6.87-7.77-16.94-11.65-30.22-11.65-9,0-16.69,1.66-23.04,4.98-6.36,3.32-11.2,7.71-14.52,13.17-3.32,5.46-4.98,11.39-4.98,17.81h23.63c0-4.28,1.58-8.02,4.73-11.23,3.15-3.21,7.88-4.81,14.18-4.81,4.84,0,8.55,1.04,11.14,3.12,2.59,2.08,4.33,4.87,5.23,8.36.53,2.04.88,4.26,1.1,6.61-4.41.05-8.94.24-13.59.57-5.52.4-10.86,1.16-16.04,2.28-5.18,1.13-9.82,2.84-13.93,5.15-4.11,2.31-7.4,5.43-9.88,9.37-2.48,3.94-3.71,8.95-3.71,15.02s1.41,11.65,4.22,16.04c2.81,4.39,6.64,7.74,11.48,10.04,4.84,2.31,10.35,3.46,16.54,3.46s11.45-1.41,15.78-4.22c3.9-2.53,7.02-5.89,9.37-10.07v11.59h22.79v-54.02c0-13.28-3.43-23.8-10.3-31.57ZM965.52,148.89c-2.03,2.81-4.64,4.81-7.85,5.99s-6.5,1.77-9.88,1.77c-3.6,0-6.67-.87-9.2-2.62-2.53-1.74-3.8-4.36-3.8-7.85,0-4.84,3.12-8.86,9.37-12.07,5.35-2.74,13.48-4.02,24.39-3.84v6.79c0,5.06-1.01,9-3.04,11.82Z"/>
    <path class="cls-2" d="M1041.65,80.69c-4.39,2.36-7.65,5.32-9.79,8.86-1.02,1.69-1.86,3.41-2.53,5.16v-14.87h-22.62v94.53h22.62v-47.1c0-7.54,1.12-13.31,3.38-17.3,2.25-3.99,5.63-6.75,10.13-8.27,4.5-1.52,10.07-2.28,16.71-2.28v-22.28c-7.54,0-13.5,1.18-17.89,3.54Z"/>
    <path class="cls-2" d="M1123.35,153.11c-3.26,2.36-7.43,3.54-12.49,3.54-5.97,0-10.8-1.29-14.52-3.88-3.71-2.59-6.42-6.13-8.1-10.63-.88-2.35-1.53-4.83-1.95-7.43h67.62c1.24-9.12.9-17.24-1.01-24.39-1.92-7.15-4.95-13.17-9.12-18.06-4.16-4.9-9.09-8.64-14.77-11.23-5.68-2.59-11.73-3.88-18.15-3.88-9.68,0-18.15,2.14-25.41,6.41-7.26,4.28-12.89,10.19-16.88,17.72-4,7.54-5.99,16.21-5.99,26s2,18.29,5.99,25.83c3.99,7.54,9.62,13.42,16.88,17.64,7.26,4.22,15.73,6.33,25.41,6.33,7.65,0,14.46-1.38,20.43-4.14,5.96-2.76,10.91-6.58,14.85-11.48,3.94-4.9,6.58-10.61,7.93-17.13h-23.8c-1.35,3.49-3.66,6.42-6.92,8.78ZM1096.34,101.37c3.71-2.64,8.55-3.97,14.52-3.97,5.17,0,9.34,1.18,12.49,3.54,3.15,2.36,5.4,5.35,6.75,8.95.77,2.06,1.22,4.15,1.37,6.25h-44.48c.35-1.4.76-2.75,1.24-4.05,1.69-4.5,4.39-8.07,8.1-10.72Z"/>
  </g>
</svg>