<?xml version="1.0" encoding="UTF-8"?>
<svg id="Layer_2" xmlns="http://www.w3.org/2000/svg" version="1.1" viewBox="0 0 816 731.3">
  <!-- Generator: Adobe Illustrator 30.6.0, SVG Export Plug-In . SVG Version: 2.1.4 Build 109)  -->
  <defs>
    <style>
      .st0 {
        fill: #2d5939;
      }
    </style>
  </defs>
  <g id="Objects">
    <g>
      <path class="st0" d="M643.7,690.6c-89.6-31.2-266.5-108-491.9-374.1,0,0,132.1,236.7,384.3,365.4-35.8,23.7-72.9,38.5-110.5,45.2-83.9,15-169.9-10.1-247.9-65.2C-5.7,532.5-31.3,272.6,29.4,126c8.2-19.9,35-24.3,49.3-8.2,30.1,34,71.2,58.9,114.1,76.4,56.9,23.3,117.9,35.4,177,52.8,59.1,17.5,118,41.4,162.1,83.5,64.1,61.3,74.7,186.8,47.1,270.5,39,31.7,87.2,49.4,130.1,55.6,12.8,1.9,26.2,10,23.8,28.4-1.7,13.2-12.2,17.8-20.8,19.4-5.3,1-10.8.9-16.2-.1-9.1-1.7-30.5-6.2-52.3-13.8h0Z"/>
      <path class="st0" d="M809,55.5c-23.9,21.2-41.5,50.2-53.8,80.4-16.4,40.1-24.9,83.1-37.2,124.7-12.3,41.6-29.1,83.1-58.8,114.2-15.1,15.8-35.7,26.9-58.6,34-9.7-32.1-26.1-66.4-54.2-93.2-14.1-13.5-29.5-25.1-45.4-35.2,38.8-51,92.6-109.4,168.1-173.3-2,1.1-100.3,56.5-186.4,162.5-34.6-19-70.8-31.6-102.3-41.1,6.6-35.4,22.2-70.3,45.4-103.2C516.9-4,700-22,803.3,20.7c14,5.8,17.1,24.6,5.7,34.7h0Z"/>
    </g>
  </g>
</svg>