<?xml version="1.0" encoding="UTF-8"?>
<svg id="Layer_2" xmlns="http://www.w3.org/2000/svg" version="1.1" viewBox="0 0 1152.8 1143.1">
  <!-- Generator: Adobe Illustrator 30.6.0, SVG Export Plug-In . SVG Version: 2.1.4 Build 109)  -->
  <defs>
    <style>
      .st0 {
        fill: #255f93;
      }
    </style>
  </defs>
  <g id="Layer_1-2">
    <g>
      <path class="st0" d="M634,422.7h102.5l-11.7-234.7h-202.3v62.3h10.7c10.9,0,19.8,8.9,19.8,19.8v15.2c0,10.9-8.9,19.8-19.8,19.8h-61c-10.9,0-19.8-8.9-19.8-19.8v-15.2c0-10.9,8.9-19.8,19.8-19.8h10.7v-62.3h-193.5v62.3h10.7c10.9,0,19.8,8.9,19.8,19.8v15.2c0,10.9-8.9,19.8-19.8,19.8h-60.9c-10.9,0-19.8-8.9-19.8-19.8v-15.2c0-10.9,8.9-19.8,19.8-19.8h10.7v-62.3H47.5L0,1143.1h566.1l48.2-702c.8-10.3,9.4-18.4,19.8-18.4h0Z"/>
      <path class="st0" d="M1106,462.3h-453.5l-46.8,680.8h547.1l-46.8-680.8h0ZM1016.4,570.9c0,8.2-6.6,14.8-14.8,14.8h-15.6v69.4c0,58.8-47.8,106.7-106.7,106.7s-106.7-47.9-106.7-106.7v-69.4h-15.5c-8.2,0-14.8-6.6-14.8-14.8v-15.2c0-8.2,6.6-14.8,14.8-14.8h60.8c8.2,0,14.8,6.6,14.8,14.8v15.2c0,8.2-6.6,14.8-14.8,14.8h-15.6v69.4c0,42.5,34.5,77,77,77s77-34.5,77-77v-69.4h-15.6c-8.2,0-14.8-6.6-14.8-14.8v-15.2c0-8.2,6.6-14.8,14.8-14.8h61c8.2,0,14.8,6.6,14.8,14.8v15.2h0Z"/>
      <path class="st0" d="M289.4,148.4c.2-60.1,43.5-108.8,96.8-108.8s96.6,48.8,96.8,108.8v39.6h39.6v-39.6c-.2-81.9-61.2-148.4-136.4-148.4s-136.1,66.5-136.4,148.4v39.6h39.6v-39.6h0Z"/>
    </g>
  </g>
</svg>