<?xml version="1.0" encoding="UTF-8"?>
<svg id="Layer_2" data-name="Layer 2" xmlns="http://www.w3.org/2000/svg" viewBox="0 0 344 344">
  <defs>
    <style>
      .cls-1 {
        fill: #fff;
      }

      .cls-2 {
        fill: #ff9d00;
      }

      .cls-3 {
        fill: #231f20;
      }
    </style>
  </defs>
  <g id="Layer_1-2" data-name="Layer 1">
    <rect class="cls-3" width="344" height="344" rx="42.76" ry="42.76"/>
    <path class="cls-2" d="M303.1,162.94l-105.88-90.9c-13.85-11.89-36.19-11.91-49.64-.55l-33.33,28.18c-10.15-8.12-22.87-9.84-34.22-4.49-7.97,3.75-14.2,11.2-14.25,20.43l-.12,23.98-24.18,22.92c-5.06,4.81-7.81,10.74-6.74,17.53,2.11,13.3,15.69,18.38,30.68,18.11l.43,34.35c.32,25.45,15.72,46.11,40.69,47.85,11.35.79,22.69.72,34.66-.01,19.06-1.15,31.49-18.21,34.09-16.2l2.7,2.11c8.7,6.75,18.22,13.31,29.67,14.01,12.11.75,24.37,1.18,36.24-.25,14.59-1.77,26.28-10.91,31.85-23.98,3.62-8.5,4.9-17.55,4.91-26.86l.03-31.36c14.87.87,28.09-6.47,28.78-19.45.3-5.56-1.75-11.46-6.37-15.42ZM285.74,179.4l-26.25-.04.05,50.78c.02,15.69-5.61,31.43-20.52,32.24-9.67.53-19.31.67-28.98-.22-8.1-.76-14.43-6.89-20.24-11.49l24.51-19.19c8.13-7.28,15.7-13.81,22.18-24.01l-27.97-.05c-10.74,11.13-21.35,20.47-33.85,30.46-12.17-9.67-23.22-19.38-34.14-30.49l-27.78-.03c10.55,17.24,30.15,29.85,46.5,43.17-5.87,4.14-11.71,10.55-19.35,11.5-10.24,1.28-20.53.6-30.78.47-14.99-2.17-22.37-15.73-22.38-30.28l-.04-52.82-27.7.02c-1.3,0-3.32-2.04-3.34-3.01l23.6-22.15c2.36-2.21,5.64-5.82,7.36-8.41l.19-29.93c.02-2.54,3.83-5.16,6.07-5.5,2.25-.34,7.57,1.6,7.64,4.11l.54,22.35,61.26-52.41c5.53-4.74,14.32-3.15,20.09.4l104.59,90.09,1.45,2.69c.3.56-1.87,1.75-2.71,1.75Z"/>
    <path class="cls-1" d="M241.45,196.83l-23.46-.13c6.93-9.44,4.81-20.02-4.18-25.41-8.65-5.17-20.17-5.22-28.1,2.24l-11.27,10.58c-4.07-4.08-7.65-8.13-11.85-11.31-10.05-7.61-24.04-6.37-32.04,2.53-4.66,7.01-4.81,14.25.99,21.5h-23.63c-5.13-15.03,1.38-31.34,15.01-39.85,15.85-9.9,35.65-9.49,51.66,1.08,17.74-11.93,41.08-11.17,57.16,3.28,10.19,9.16,13.84,22.25,9.71,35.49Z"/>
  </g>
</svg>